<svg width="34" height="34" viewBox="0 0 34 34" fill="none" xmlns="http://www.w3.org/2000/svg">
<path d="M14 6.3V10.7C14 12.9 12.9 14 10.7 14H6.3C4.1 14 3 12.9 3 10.7V6.3C3 4.1 4.1 3 6.3 3H10.7C12.9 3 14 4.1 14 6.3Z" fill="#FFDFE0" stroke="#FE353D" stroke-width="2" stroke-linecap="round" stroke-linejoin="round"/>
<path d="M31 6.3V10.7C31 12.9 29.9 14 27.7 14H23.3C21.1 14 20 12.9 20 10.7V6.3C20 4.1 21.1 3 23.3 3H27.7C29.9 3 31 4.1 31 6.3Z" fill="#FFDFE0" stroke="#FE353D" stroke-width="2" stroke-linecap="round" stroke-linejoin="round"/>
<path d="M14 23.3V27.7C14 29.9 12.9 31 10.7 31H6.3C4.1 31 3 29.9 3 27.7V23.3C3 21.1 4.1 20 6.3 20H10.7C12.9 20 14 21.1 14 23.3Z" fill="#FFDFE0" stroke="#FE353D" stroke-width="2" stroke-linecap="round" stroke-linejoin="round"/>
<path d="M31 23.3V27.7C31 29.9 29.9 31 27.7 31H23.3C21.1 31 20 29.9 20 27.7V23.3C20 21.1 21.1 20 23.3 20H27.7C29.9 20 31 21.1 31 23.3Z" fill="#FFDFE0" stroke="#FE353D" stroke-width="2" stroke-linecap="round" stroke-linejoin="round"/>
</svg>
