<svg width="40" height="40" viewBox="0 0 40 40" fill="none" xmlns="http://www.w3.org/2000/svg">
<path d="M33.3337 21.667V28.117C33.3343 28.7461 33.1621 29.3632 32.8359 29.9011C32.5096 30.439 32.0419 30.8769 31.4837 31.167L21.4837 36.3003C21.0255 36.5384 20.5167 36.6628 20.0003 36.6628C19.484 36.6628 18.9752 36.5384 18.517 36.3003L8.517 31.167C7.9588 30.8769 7.49104 30.439 7.16479 29.9011C6.83855 29.3632 6.66634 28.7461 6.66699 28.117V21.667H20.0003H33.3337Z" fill="#FFDFE0"/>
<path d="M20.0003 36.667V21.667M20.0003 21.667H6.66699V28.117C6.66634 28.7461 6.83855 29.3632 7.16479 29.9011C7.49104 30.439 7.9588 30.8769 8.517 31.167L18.517 36.3003C18.9752 36.5384 19.484 36.6628 20.0003 36.6628C20.5167 36.6628 21.0255 36.5384 21.4837 36.3003L31.4837 31.167C32.0419 30.8769 32.5096 30.439 32.8359 29.9011C33.1621 29.3632 33.3343 28.7461 33.3337 28.117V21.667H20.0003Z" stroke="#FE353D" stroke-width="2" stroke-linecap="round" stroke-linejoin="round"/>
<path d="M25.2829 3.68325C25.698 3.45115 26.1656 3.32929 26.6412 3.32929C27.1168 3.32929 27.5844 3.45115 27.9995 3.68325L34.9995 7.61658C35.4953 7.89692 35.9077 8.30385 36.1947 8.7958C36.4817 9.28774 36.6329 9.84706 36.6329 10.4166C36.6329 10.9861 36.4817 11.5454 36.1947 12.0374C35.9077 12.5293 35.4953 12.9362 34.9995 13.2166L14.6995 24.6499C14.2832 24.8874 13.8122 25.0123 13.3329 25.0123C12.8536 25.0123 12.3825 24.8874 11.9662 24.6499L4.99954 20.7166C4.50379 20.4362 4.09136 20.0293 3.80439 19.5374C3.51742 19.0454 3.36621 18.4861 3.36621 17.9166C3.36621 17.3471 3.51742 16.7877 3.80439 16.2958C4.09136 15.8039 4.50379 15.3969 4.99954 15.1166L25.2829 3.68325Z" fill="#FFDFE0"/>
<path d="M34.9995 20.7166C35.4953 20.4362 35.9077 20.0293 36.1947 19.5374C36.4817 19.0454 36.6329 18.4861 36.6329 17.9166C36.6329 17.3471 36.4817 16.7877 36.1947 16.2958C35.9077 15.8039 35.4953 15.3969 34.9995 15.1166L14.7162 3.66658C14.3027 3.42976 13.8344 3.30518 13.3579 3.30518C12.8813 3.30518 12.4131 3.42976 11.9995 3.66658L4.99954 7.61658C4.50379 7.89692 4.09136 8.30385 3.80439 8.7958C3.51742 9.28774 3.36621 9.84706 3.36621 10.4166C3.36621 10.9861 3.51742 11.5454 3.80439 12.0374C4.09136 12.5293 4.50379 12.9362 4.99954 13.2166L25.2995 24.6499C25.7129 24.8874 26.1812 25.0123 26.6579 25.0123C27.1346 25.0123 27.6029 24.8874 28.0162 24.6499L34.9995 20.7166Z" fill="#FFDFE0"/>
<path d="M19.9995 36.6666V21.6666M33.3329 21.6666V28.1166C33.3335 28.7457 33.1613 29.3628 32.8351 29.9007C32.5088 30.4386 32.0411 30.8765 31.4829 31.1666L21.4829 36.2999C21.0247 36.538 20.5159 36.6623 19.9995 36.6623C19.4832 36.6623 18.9744 36.538 18.5162 36.2999L8.51621 31.1666C7.95802 30.8765 7.49026 30.4386 7.16401 29.9007C6.83776 29.3628 6.66556 28.7457 6.66621 28.1166V21.6666M25.2829 3.68325C25.698 3.45115 26.1656 3.32929 26.6412 3.32929C27.1168 3.32929 27.5844 3.45115 27.9995 3.68325L34.9995 7.61658C35.4953 7.89692 35.9077 8.30385 36.1947 8.7958C36.4817 9.28774 36.6329 9.84706 36.6329 10.4166C36.6329 10.9861 36.4817 11.5454 36.1947 12.0374C35.9077 12.5293 35.4953 12.9362 34.9995 13.2166L14.6995 24.6499C14.2832 24.8874 13.8122 25.0123 13.3329 25.0123C12.8536 25.0123 12.3825 24.8874 11.9662 24.6499L4.99954 20.7166C4.50379 20.4362 4.09136 20.0293 3.80439 19.5374C3.51742 19.0454 3.36621 18.4861 3.36621 17.9166C3.36621 17.3471 3.51742 16.7877 3.80439 16.2958C4.09136 15.8039 4.50379 15.3969 4.99954 15.1166L25.2829 3.68325ZM34.9995 20.7166C35.4953 20.4362 35.9077 20.0293 36.1947 19.5374C36.4817 19.0454 36.6329 18.4861 36.6329 17.9166C36.6329 17.3471 36.4817 16.7877 36.1947 16.2958C35.9077 15.8039 35.4953 15.3969 34.9995 15.1166L14.7162 3.66658C14.3027 3.42976 13.8344 3.30518 13.3579 3.30518C12.8813 3.30518 12.4131 3.42976 11.9995 3.66658L4.99954 7.61658C4.50379 7.89692 4.09136 8.30385 3.80439 8.7958C3.51742 9.28774 3.36621 9.84706 3.36621 10.4166C3.36621 10.9861 3.51742 11.5454 3.80439 12.0374C4.09136 12.5293 4.50379 12.9362 4.99954 13.2166L25.2995 24.6499C25.7129 24.8874 26.1812 25.0123 26.6579 25.0123C27.1346 25.0123 27.6029 24.8874 28.0162 24.6499L34.9995 20.7166Z" stroke="#FE353D" stroke-width="2" stroke-linecap="round" stroke-linejoin="round"/>
</svg>
