<svg width="40" height="40" viewBox="0 0 40 40" fill="none" xmlns="http://www.w3.org/2000/svg">
<rect x="1" y="1" width="38" height="38" rx="9" fill="#FFF1F2"/>
<rect x="1" y="1" width="38" height="38" rx="9" stroke="#FE353D" stroke-width="2"/>
<g clip-path="url(#clip0_6126_6414)">
<path d="M24.2625 13.0516C24.2814 12.4347 26.717 7.77627 26.9871 7.11501C27.3188 6.46362 28.257 6.46362 28.5934 7.11501C28.8493 7.74666 31.3086 12.4545 31.3181 13.0516C31.7682 15.2426 29.9486 17.3547 27.7926 17.33C25.6366 17.3547 23.8171 15.2426 24.2672 13.0516H24.2625Z" stroke="#FE353D" stroke-width="1.2" stroke-miterlimit="10"/>
<path d="M9.63439 12.7361L12.1695 7.42137C12.25 7.25359 12.4159 7.14502 12.6007 7.14502H15.9318C16.2919 7.14502 16.5241 7.5398 16.363 7.87537L14.714 11.2113H17.4102C17.6661 11.2113 17.7893 11.532 17.6045 11.7146L11.5866 17.7449C11.3782 17.9522 11.0417 17.7449 11.1175 17.4538L12.2216 13.2592H9.94239C9.68652 13.2592 9.51593 12.9779 9.62965 12.7411L9.63439 12.7361Z" stroke="#FE353D" stroke-width="1.2" stroke-miterlimit="10"/>
<path d="M18.6621 29.7855C18.8895 29.8644 19.1359 29.8447 19.3444 29.7263C19.7661 29.4993 19.9272 28.9614 19.7093 28.5222C19.6382 28.384 19.5387 28.2656 19.4107 28.1817L15.2219 25.3985C15.1177 25.3294 15.0608 25.2109 15.0656 25.0826C15.1224 23.6417 15.0466 21.7615 14.3406 20.9966C13.9994 20.592 13.4024 20.5574 13.0185 20.9127C12.9901 20.9374 12.9617 20.967 12.938 20.9966C12.2319 21.7615 12.1561 23.6417 12.213 25.0826C12.2177 25.2109 12.1609 25.3294 12.0566 25.3985L7.87729 28.1817C7.47926 28.4482 7.3608 29.0009 7.61668 29.4154C7.69723 29.5486 7.81095 29.6523 7.94363 29.7263C8.15686 29.8398 8.40326 29.8644 8.62597 29.7855L12.4404 28.4827L12.6158 31.0833L11.7439 31.5669C11.4217 31.7446 11.2179 32.09 11.2227 32.47C11.2227 33.0326 11.6633 33.4915 12.2035 33.4965H15.0703C15.6152 33.4965 16.0606 33.0375 16.0606 32.47C16.0606 32.09 15.8616 31.7446 15.5394 31.5669L14.6628 31.0883L14.8428 28.4827L18.6573 29.7855H18.6621Z" stroke="#FE353D" stroke-width="1.2" stroke-miterlimit="10"/>
<path fill-rule="evenodd" clip-rule="evenodd" d="M27.7875 20.1729C27.5269 20.1729 27.3137 20.3949 27.3137 20.6663V24.4365L25.0534 27.2592C24.9823 27.348 24.9444 27.4615 24.9444 27.575H23.049C22.7884 27.575 22.5752 27.7971 22.5752 28.0685V33.4968C22.5752 33.7682 22.7884 33.9903 23.049 33.9903H32.526C32.7866 33.9903 32.9998 33.7682 32.9998 33.4968V28.0685C32.9998 27.7971 32.7866 27.575 32.526 27.575H30.6306C30.6306 27.4615 30.5927 27.348 30.5216 27.2592L28.2614 24.4365V23.6272H30.6306C30.8912 23.6272 31.1044 23.4051 31.1044 23.1337V20.6663C31.1044 20.3949 30.8912 20.1729 30.6306 20.1729H27.7875ZM28.2614 21.1598H30.1568V22.6402H28.2614V21.1598ZM27.7875 25.384L29.6829 27.7527V33.0033H25.8921V27.7527L27.7875 25.384ZM27.3137 27.0816C27.0531 27.0816 26.8398 27.3036 26.8398 27.575C26.8398 27.8465 27.0531 28.0685 27.3137 28.0685H28.2614C28.522 28.0685 28.7352 27.8465 28.7352 27.575C28.7352 27.3036 28.522 27.0816 28.2614 27.0816H27.3137ZM23.5229 28.562H24.9444V33.0033H23.5229V28.562ZM30.6306 28.562H32.0521V33.0033H30.6306V28.562ZM27.3137 29.0555C27.0531 29.0555 26.8398 29.2775 26.8398 29.549C26.8398 29.8204 27.0531 30.0424 27.3137 30.0424H28.2614C28.522 30.0424 28.7352 29.8204 28.7352 29.549C28.7352 29.2775 28.522 29.0555 28.2614 29.0555H27.3137ZM27.3137 31.0294C27.0531 31.0294 26.8398 31.2515 26.8398 31.5229C26.8398 31.7943 27.0531 32.0163 27.3137 32.0163H28.2614C28.522 32.0163 28.7352 31.7943 28.7352 31.5229C28.7352 31.2515 28.522 31.0294 28.2614 31.0294H27.3137Z" fill="#FE353D"/>
</g>
<defs>
<clipPath id="clip0_6126_6414">
<rect width="26" height="28" fill="white" transform="translate(7 6)"/>
</clipPath>
</defs>
</svg>
