<svg width="24" height="24" viewBox="0 0 24 24" fill="none" xmlns="http://www.w3.org/2000/svg">
<path d="M11 2.40012C12.4359 2.40012 13.6005 3.56387 13.6006 4.99972V10.3513H19C20.4358 10.3513 21.6004 11.5151 21.6006 12.9509V20.7556C21.6006 22.2997 20.3486 23.5515 18.8047 23.5515H11.1963C9.65234 23.5515 8.4004 22.2997 8.40039 20.7556V15.5993H3.19629C1.65243 15.5993 0.400513 14.3484 0.400391 12.8044V5.19504C0.400647 3.65133 1.65244 2.40012 3.19629 2.40012H11ZM13.6006 12.8044C13.6005 14.3484 12.3485 15.5993 10.8047 15.5993H9.60059V20.7556C9.60059 21.6368 10.3149 22.3513 11.1963 22.3513H18.8047C19.6861 22.3513 20.4004 21.6368 20.4004 20.7556V12.9509C20.4002 12.1779 19.7731 11.5515 19 11.5515H13.6006V12.8044ZM15.7021 13.6999C15.7621 13.6999 15.8013 13.7299 15.8193 13.7898L17.7812 19.8737C17.7872 19.8857 17.791 19.9008 17.791 19.9187C17.791 19.9727 17.7574 19.9997 17.6914 19.9997H16.792C16.732 19.9997 16.6928 19.9699 16.6748 19.9099L16.3779 18.947C16.366 18.9232 16.3508 18.911 16.333 18.9109H13.957C13.939 18.9109 13.9231 18.923 13.9111 18.947L13.6143 19.9099C13.5963 19.9697 13.5578 19.9996 13.498 19.9997H12.5977C12.5618 19.9997 12.5346 19.9912 12.5166 19.9734C12.4986 19.9494 12.4958 19.9157 12.5078 19.8737L14.4609 13.7898C14.4789 13.7301 14.5175 13.7001 14.5771 13.6999H15.7021ZM15.1357 14.987C15.1237 14.987 15.1144 14.9992 15.1084 15.0232L14.1904 18.0378C14.1844 18.0738 14.1966 18.0915 14.2266 18.0915H16.0537C16.0896 18.0915 16.1018 18.0738 16.0898 18.0378L15.1621 15.0232C15.1561 14.9993 15.1477 14.9871 15.1357 14.987ZM3.19629 3.60031C2.31513 3.60031 1.60084 4.31413 1.60059 5.19504V12.8044C1.60071 13.6855 2.31497 14.4001 3.19629 14.4001H10.8047C11.686 14.4001 12.4003 13.6855 12.4004 12.8044V4.99972C12.4003 4.22662 11.7731 3.60031 11 3.60031H3.19629ZM5.83008 5.78C5.83008 6.18655 5.91349 6.46339 6.08008 6.61008C6.25341 6.75674 6.52706 6.8298 6.90039 6.8298H8.06055L7.44043 8.29953C7.85376 8.45953 8.21074 8.69306 8.51074 8.99972C8.81738 9.29972 9.06025 9.70713 9.24023 10.2204C9.42015 10.727 9.52412 11.3672 9.55078 12.1403H8.28027C8.26028 11.5606 8.19739 11.087 8.09082 10.7204C7.98415 10.3471 7.83706 10.0498 7.65039 9.8298C7.47043 9.60321 7.25733 9.42617 7.01074 9.29953L5.80078 12.1403H4.5L6.36035 7.82004C5.76037 7.7667 5.31694 7.58666 5.03027 7.28C4.75033 6.97338 4.61039 6.54006 4.61035 5.98019V4.99972H5.83008V5.78ZM14.3926 1.8132C16.6705 2.25496 18.495 3.09504 19.8115 4.37375C20.7825 5.31691 21.4507 6.47533 21.8301 7.83078L21.9404 7.65304C22.1149 7.37144 22.4849 7.28438 22.7666 7.45871C23.0483 7.63311 23.1353 8.00314 22.9609 8.28488L22.0498 9.75461C22.0293 9.78928 22.0048 9.82113 21.9775 9.85129C21.9719 9.85748 21.9668 9.86392 21.9609 9.86984C21.9365 9.89468 21.9108 9.91858 21.8818 9.93918C21.8508 9.96117 21.817 9.97838 21.7832 9.99387C21.7805 9.99508 21.7781 9.9966 21.7754 9.99777C21.7075 10.0277 21.6357 10.0451 21.5625 10.0486C21.5576 10.0488 21.5527 10.0484 21.5479 10.0486C21.5142 10.0493 21.4807 10.0476 21.4473 10.0427C21.4443 10.0423 21.4414 10.0422 21.4385 10.0417C21.4021 10.0358 21.3663 10.0261 21.3311 10.0134C21.3282 10.0123 21.3252 10.0116 21.3223 10.0105C21.306 10.0043 21.2893 9.99858 21.2734 9.99094L19.9297 9.3425C19.6312 9.1985 19.5064 8.83919 19.6504 8.54074C19.7945 8.2426 20.1529 8.11751 20.4512 8.26144L20.7412 8.40207C20.4265 7.11742 19.8342 6.06812 18.9756 5.2341C17.8733 4.16354 16.2869 3.40262 14.1641 2.99094C13.8389 2.92777 13.6265 2.61299 13.6895 2.28781C13.7525 1.96253 14.0673 1.75017 14.3926 1.8132Z" fill="white"/>
</svg>
