<svg width="40" height="40" viewBox="0 0 40 40" fill="none" xmlns="http://www.w3.org/2000/svg">
<path d="M18.5 31.5L26.5 23H24.0833L24.5 20.5L22.5 19H20.5H15.5L6 28.3333L11.6667 34L15.5 31.5H18.5Z" fill="#FFDFE0"/>
<path d="M18.333 25.0002H21.6663C22.5504 25.0002 23.3982 24.649 24.0234 24.0239C24.6485 23.3987 24.9997 22.5509 24.9997 21.6668C24.9997 20.7828 24.6485 19.9349 24.0234 19.3098C23.3982 18.6847 22.5504 18.3335 21.6663 18.3335H16.6663C15.6663 18.3335 14.833 18.6668 14.333 19.3335L4.99967 28.3335" fill="#FFDFE0"/>
<path d="M11.6663 35.0002L14.333 32.6668C14.833 32.0002 15.6663 31.6668 16.6663 31.6668H23.333C25.1663 31.6668 26.833 31.0002 27.9997 29.6668L35.6663 22.3335C36.3095 21.7257 36.6849 20.8873 36.7099 20.0028C36.7349 19.1182 36.4075 18.26 35.7997 17.6168C35.1919 16.9737 34.3535 16.5983 33.469 16.5733C32.5844 16.5483 31.7262 16.8757 31.083 17.4835L24.083 23.9835" fill="#FFDFE0"/>
<path d="M3.33301 26.6668L13.333 36.6668L3.33301 26.6668Z" fill="#FFDFE0"/>
<path d="M26.6663 19.8335C29.3357 19.8335 31.4997 17.6695 31.4997 15.0002C31.4997 12.3308 29.3357 10.1668 26.6663 10.1668C23.997 10.1668 21.833 12.3308 21.833 15.0002C21.833 17.6695 23.997 19.8335 26.6663 19.8335Z" fill="#FFDFE0"/>
<path d="M9.99967 13.3335C12.7611 13.3335 14.9997 11.0949 14.9997 8.3335C14.9997 5.57207 12.7611 3.3335 9.99967 3.3335C7.23825 3.3335 4.99967 5.57207 4.99967 8.3335C4.99967 11.0949 7.23825 13.3335 9.99967 13.3335Z" fill="#FFDFE0"/>
<path d="M18.333 25.0002H21.6663C22.5504 25.0002 23.3982 24.649 24.0234 24.0239C24.6485 23.3987 24.9997 22.5509 24.9997 21.6668C24.9997 20.7828 24.6485 19.9349 24.0234 19.3098C23.3982 18.6847 22.5504 18.3335 21.6663 18.3335H16.6663C15.6663 18.3335 14.833 18.6668 14.333 19.3335L4.99967 28.3335M11.6663 35.0002L14.333 32.6668C14.833 32.0002 15.6663 31.6668 16.6663 31.6668H23.333C25.1663 31.6668 26.833 31.0002 27.9997 29.6668L35.6663 22.3335C36.3095 21.7257 36.6849 20.8873 36.7099 20.0028C36.7349 19.1182 36.4075 18.26 35.7997 17.6168C35.1919 16.9737 34.3535 16.5983 33.469 16.5733C32.5844 16.5483 31.7262 16.8757 31.083 17.4835L24.083 23.9835M3.33301 26.6668L13.333 36.6668M31.4997 15.0002C31.4997 17.6695 29.3357 19.8335 26.6663 19.8335C23.997 19.8335 21.833 17.6695 21.833 15.0002C21.833 12.3308 23.997 10.1668 26.6663 10.1668C29.3357 10.1668 31.4997 12.3308 31.4997 15.0002ZM14.9997 8.3335C14.9997 11.0949 12.7611 13.3335 9.99967 13.3335C7.23825 13.3335 4.99967 11.0949 4.99967 8.3335C4.99967 5.57207 7.23825 3.3335 9.99967 3.3335C12.7611 3.3335 14.9997 5.57207 14.9997 8.3335Z" stroke="#FE353D" stroke-width="2" stroke-linecap="round" stroke-linejoin="round"/>
</svg>
