<svg width="177" height="55" viewBox="0 0 177 55" fill="none" xmlns="http://www.w3.org/2000/svg">
<path d="M144.68 50.686C143.668 50.7567 142.755 50.4615 142.334 49.4805L141.574 49.4467V51.0673C141.574 53.0908 139.59 54.3824 137.776 54.5485C137.481 54.5762 136.961 54.5792 136.669 54.5485C134.965 54.3824 133.077 53.1708 133.077 51.2734V42.6166H135.943L136.048 42.7211V50.8582C136.048 50.9136 136.199 51.2826 136.242 51.3564C136.706 52.1744 138.121 52.0944 138.45 51.1903C138.486 51.0919 138.603 50.6522 138.603 50.5845V42.6166H141.469L141.574 42.7211V47.4447H143.819L144.68 50.686Z" fill="white"/>
<path d="M40.1256 22.3016V36.6168H31.6288V23.2672C31.4627 21.1207 31.4012 18.7312 28.6981 18.5437C24.5035 18.2484 24.3528 21.2591 24.0299 24.5773V36.6168H15.8836V22.9904C15.6714 20.7947 15.5884 18.6636 12.8821 18.4729C8.68446 18.1777 8.29698 21.542 8.21702 24.8571C8.21087 25.1708 8.22625 25.4691 8.2201 25.7489C8.13091 29.3408 8.14629 32.9419 8.14014 36.5368L0 36.5491V13.0974H8.28775V17.0983L8.32158 17.1659L8.35541 17.0983C9.524 15.2716 10.9478 13.6756 13.0359 12.9068C15.9082 11.8519 20.2873 12.2117 22.443 14.5828C23.0458 15.2439 23.3902 16.0343 23.79 16.8184C25.2446 14.4628 27.6556 12.6853 30.4909 12.4762C33.4124 12.261 36.2539 12.7161 38.2251 15.0256C39.9995 17.1044 40.0088 19.7122 40.1256 22.3016Z" fill="white"/>
<path d="M70.5523 19.2971C70.4908 19.251 70.4416 19.2202 70.4416 19.131V4.43756C70.2848 2.12191 68.5103 0.221417 66.1855 0L48.466 0.0123009C46.3379 0.227567 44.6588 1.85744 44.3359 3.95782V44.7938C44.5512 47.2017 46.667 48.9792 49.0656 48.9669C54.5396 48.7301 60.2687 49.2714 65.715 48.9669C68.2213 48.8255 70.0941 47.3248 70.4324 44.7815C70.4969 37.2933 70.3493 29.7713 70.5062 22.3016C71.1796 21.6589 71.8224 20.9669 72.3052 20.1704C72.2683 19.9952 70.7829 19.4754 70.5523 19.2971ZM45.9935 24.8909H45.7874V24.8233H45.9935V24.8909ZM68.1628 18.0639L62.4706 15.3792C60.8868 18.1531 58.9525 20.807 56.3878 22.7536C56.3232 22.8028 56.2402 22.8028 56.2156 22.8213C53.3371 24.9555 50.9292 25.6659 47.3066 25.3061C48.1246 25.6013 49.0533 25.7551 49.9175 25.9027C54.5211 26.7022 59.7029 26.9575 64.2419 25.6997C65.6104 25.3184 66.9358 24.7741 68.1628 24.0637V42.4105H46.4763V25.097C46.3594 25.0631 46.2057 24.9432 46.0611 24.9248C46.0642 24.8633 46.3902 24.894 46.4763 24.8909V4.88962H68.1628V18.0639Z" fill="white"/>
<path d="M88.4403 12.4855C85.5219 12.8422 83.4799 14.5858 81.8347 16.8892V13.0974H74.5156V45.7902H82.0776L82.1853 45.5534V35.0607L81.9761 32.2715L82.9418 33.6154C86.8811 38.4373 94.7414 37.318 97.955 32.1977C102.682 24.6634 99.1544 11.1723 88.4403 12.4855ZM86.0108 30.1342C80.1464 29.7037 79.9649 19.3617 86.0354 18.7712C89.2429 18.4606 91.6477 20.3088 91.9091 23.5563C92.2382 27.5818 90.31 30.451 86.0108 30.1342Z" fill="white"/>
<path d="M168.922 13.0267V16.7508L167.744 15.1332C164.039 10.8802 156.864 11.772 153.454 15.9605C149.628 20.6563 149.963 30.2418 154.589 34.3411C158.248 37.5855 164.709 37.2749 167.852 33.4462L168.922 32.0655V35.7188H176.241V13.0974L168.922 13.0267ZM169.107 25.8719C168.553 28.9656 165.927 30.454 162.898 29.9774C157.132 29.064 157.362 19.2264 163.175 18.6359C167.738 18.1716 169.857 21.7019 169.107 25.8719Z" fill="white"/>
<path d="M121.444 14.1983C117.52 11.6859 111.566 11.732 107.63 14.1983C103.097 17.0368 101.135 22.2401 102.242 27.4434C103.78 34.6517 110.825 37.2749 117.566 36.4015C120.884 35.971 124.156 34.3811 125.54 31.189L119.519 28.7473C118.704 30.4202 117.049 31.2659 115.229 31.3766C111.689 31.5949 109.524 29.5376 109.598 25.9949H126.724C126.847 21.4159 125.457 16.7692 121.444 14.1983ZM109.804 21.4436C110.099 19.7338 110.997 18.0055 112.738 17.4396C115.773 16.4494 118.581 18.313 118.922 21.4436H109.804Z" fill="white"/>
<path d="M147.03 33.7568C144.084 36.8505 139.086 36.9458 135.138 36.2508C132.899 35.8541 130.771 34.9562 128.803 33.8522L130.491 27.7878C132.967 29.8205 136.002 31.0599 139.262 30.8261C140.027 30.7708 141.094 30.5125 141.427 29.7467C142.503 27.265 137.825 26.733 136.34 26.2902C132.767 25.2169 129.682 23.504 129.898 19.2663C130.085 15.5945 132.893 13.3588 136.309 12.7038C139.815 12.0303 143.49 12.7468 146.771 14.0108C147.027 14.1092 147.786 14.3613 147.955 14.4813C148.054 14.552 148.069 14.592 148.069 14.715L146.476 20.0628C145.178 19.2756 143.838 18.5129 142.346 18.1531C140.965 17.8179 136.943 17.2613 137.297 19.6784C137.395 20.3365 138.348 20.804 138.914 21.0315C141.54 22.0894 144.327 22.2247 146.716 24.0637C149.665 26.3363 149.481 31.1859 147.03 33.7568Z" fill="white"/>
<path d="M172.551 42.6135C170.214 42.4936 167.216 42.5028 164.879 42.6135C161.724 42.7642 159.208 44.3356 159.894 47.8752C160.269 49.8249 162.05 50.5599 163.879 50.4799L162.083 54.3424H165.331L167.748 48.9977V44.8922H168.923V48.8931H173.652C174.99 48.8931 176.171 47.4877 176.303 46.23C176.577 43.6191 174.876 42.7365 172.551 42.6135ZM164.777 47.9275C161.948 49.0746 162.274 44.514 164.777 44.8922V47.9275ZM171.961 46.6175V44.8922C172.641 44.843 173.416 44.8922 173.416 45.7564C173.419 46.5529 172.607 46.682 171.961 46.6175Z" fill="white"/>
<path d="M155.926 50.2155L155.179 50.2062L156.351 54.3424H153.245L151.132 47.2325C150.428 47.3801 150.034 48.0966 149.791 48.7209C149.13 50.4092 149.158 52.4419 148.964 54.2256C148.952 54.2656 148.746 54.3424 148.721 54.3424H146.372C146.202 54.1518 146.261 53.7428 146.27 53.4814C146.347 51.5194 146.888 48.1305 148.137 46.5836C148.78 45.7841 149.539 45.3843 150.474 44.9999L149.724 42.6166H152.83L154.496 48.195L157.452 48.2104L158.217 51.4456C157.209 51.5624 156.286 51.2149 155.926 50.2155Z" fill="white"/>
<path d="M131.491 54.3424H128.382L126.276 47.2387C125.381 47.4816 125.015 48.3734 124.775 49.1853C124.283 50.8397 124.246 52.6326 124.101 54.3424H121.34C121.712 51.1011 121.669 46.1531 125.55 45.0983L124.861 42.6166H127.97L131.491 54.3424Z" fill="white"/>
<path d="M8.35574 17.0983L8.32191 17.166L8.28809 17.0983H8.35574Z" fill="white"/>
<path d="M56.215 22.8213C53.3365 24.9555 50.9286 25.6659 47.306 25.3061C47.2599 25.2999 47.2138 25.3061 47.1676 25.3061C47.1338 25.2477 47.0754 25.2538 47.0292 25.2354C46.8786 25.1769 46.857 25.2138 46.6848 25.2354L46.7525 25.097C46.6694 25.0847 46.5464 25.1185 46.4757 25.097C46.3588 25.0631 46.2051 24.9432 46.0605 24.9248C46.0636 24.8633 46.3896 24.894 46.4757 24.8909C49.514 24.8264 51.9035 22.5722 53.5211 20.2012L53.6656 20.2443C54.2868 21.2929 55.1417 22.2247 56.215 22.8213Z" fill="white"/>
<path d="M45.9931 24.8233H45.7871V24.8909H45.9931V24.8233Z" fill="white"/>
<path d="M47.168 25.3061C47.1003 25.2999 47.0296 25.3092 46.9619 25.303L47.0296 25.2354C47.0757 25.2538 47.1341 25.2477 47.168 25.3061Z" fill="white"/>
</svg>
