<svg width="77" height="21" viewBox="0 0 77 21" fill="none" xmlns="http://www.w3.org/2000/svg">
<path fill-rule="evenodd" clip-rule="evenodd" d="M17.3298 9.03582V15.1312H13.7705V9.64505C13.7705 8.11228 13.1702 7.46283 12.2341 7.46283C11.203 7.46283 10.4536 8.19048 10.4536 9.84205V15.1312H6.89458V9.64505C6.89458 8.11228 6.31377 7.46283 5.35857 7.46283C4.30951 7.46283 3.56003 8.19048 3.56003 9.84205V15.1312H0V4.47512H3.39101V5.59565C4.15955 4.73021 5.22696 4.29749 6.42634 4.29749C7.81238 4.29749 8.99235 4.82815 9.70478 5.96879C10.5104 4.90709 11.7648 4.29749 13.2264 4.29749C15.587 4.29749 17.3298 5.73269 17.3298 9.03582" fill="#2EA836"/>
<path fill-rule="evenodd" clip-rule="evenodd" d="M38.745 9.80265C38.745 8.19056 37.8082 7.26628 36.6092 7.26628C35.4101 7.26628 34.4736 8.19056 34.4736 9.80265C34.4736 11.4151 35.4101 12.3386 36.6092 12.3386C37.8082 12.3386 38.745 11.4151 38.745 9.80265M42.3424 9.80257C42.3424 13.1846 40.1127 15.308 37.3582 15.308C36.1786 15.308 35.2231 14.9338 34.5297 14.1875V18.9452H30.9707V4.47512H34.3607V5.53607C35.0357 4.69148 36.029 4.29749 37.3582 4.29749C40.1127 4.29749 42.3424 6.4205 42.3424 9.80257" fill="#2EA836"/>
<path fill-rule="evenodd" clip-rule="evenodd" d="M46.876 8.78001H51.0352C50.8478 7.65911 50.0609 6.9523 48.9561 6.9523C47.8506 6.9523 47.0828 7.65911 46.876 8.78001M54.3133 10.747H46.9315C47.2314 11.8276 48.1125 12.4574 49.4237 12.4574C50.416 12.4574 51.072 12.1624 51.765 11.5323L53.639 13.5775C52.6644 14.7182 51.241 15.308 49.3108 15.308C45.6954 15.308 43.3545 12.9683 43.3545 9.78284C43.3545 6.57839 45.7331 4.29749 48.9364 4.29749C51.9336 4.29749 54.3695 6.3032 54.3695 9.82231C54.3695 10.0979 54.3321 10.4517 54.3133 10.747" fill="#2EA836"/>
<path fill-rule="evenodd" clip-rule="evenodd" d="M55.2119 14.2072L56.2797 11.6515C57.2169 12.26 58.5846 12.6339 59.821 12.6339C61.02 12.6339 61.4128 12.3587 61.4128 11.9066C61.4128 10.471 55.4183 12.1028 55.4183 7.83671C55.4183 5.831 57.1791 4.29749 60.3637 4.29749C61.7879 4.29749 63.3616 4.61216 64.3736 5.2024L63.3055 7.73803C62.2935 7.14816 61.2822 6.95265 60.3828 6.95265C59.1841 6.95265 58.7525 7.30531 58.7525 7.69893C58.7525 9.1736 64.7293 7.58088 64.7293 11.8083C64.7293 13.7745 63.0052 15.308 59.7084 15.308C57.984 15.308 56.2049 14.8552 55.2119 14.2072" fill="#2EA836"/>
<mask id="mask0_6280_3218" style="mask-type:luminance" maskUnits="userSpaceOnUse" x="65" y="4" width="12" height="12">
<path fill-rule="evenodd" clip-rule="evenodd" d="M65.6279 4.29724H76.9995V15.3082H65.6279V4.29724Z" fill="white"/>
</mask>
<g mask="url(#mask0_6280_3218)">
<path fill-rule="evenodd" clip-rule="evenodd" d="M73.497 9.78261C73.497 8.17015 72.5601 7.26635 71.3615 7.26635C70.1617 7.26635 69.2256 8.17015 69.2256 9.78261C69.2256 11.4148 70.1617 12.3387 71.3615 12.3387C72.5601 12.3387 73.497 11.4148 73.497 9.78261V9.78261ZM76.9996 4.47525V15.1309H73.6086V14.0688C72.9343 14.9145 71.941 15.3082 70.6111 15.3082C67.8573 15.3082 65.6279 13.184 65.6279 9.78259C65.6279 6.40126 67.8573 4.29724 70.6111 4.29724C71.7914 4.29724 72.7466 4.65139 73.4403 5.39804V4.47525H76.9996Z" fill="#2EA836"/>
</g>
<path fill-rule="evenodd" clip-rule="evenodd" d="M18.0967 10.2167C20.145 10.5906 21.7661 8.0166 21.7661 8.0166C23.4034 10.7001 24.7277 8.53981 24.7277 8.53981C24.7277 8.53981 23.6066 10.6878 19.7149 10.6018C19.7149 10.6018 18.3518 10.3079 18.0967 10.2167" fill="#A24A3F"/>
<path fill-rule="evenodd" clip-rule="evenodd" d="M25.7753 5.72681C25.7753 5.72681 22.8907 11.719 18.0967 10.2168C18.0967 10.2168 26.9567 13.0831 30.2048 7.96861L25.7753 5.72681Z" fill="#DD383A"/>
<mask id="mask1_6280_3218" style="mask-type:luminance" maskUnits="userSpaceOnUse" x="18" y="0" width="12" height="21">
<path fill-rule="evenodd" clip-rule="evenodd" d="M18.8779 0H29.1V21H18.8779V0Z" fill="white"/>
</mask>
<g mask="url(#mask1_6280_3218)">
<path fill-rule="evenodd" clip-rule="evenodd" d="M28.5206 10.0279V18.4161H19.4573L19.457 1.69787H28.521V6.7654L29.1 7.11619V1.55859C29.1 0.697621 28.5294 -0.000244141 27.8258 -0.000244141H20.1514C19.4478 -0.000244141 18.8783 0.697621 18.8783 1.55859L18.8779 19.442C18.8779 20.3023 19.4478 21.0001 20.1511 21.0001H27.8262C28.5294 21.0001 29.1 20.3023 29.1 19.442V9.60825C28.9095 9.75683 28.6865 9.91435 28.5206 10.0279" fill="#DD383A"/>
</g>
</svg>
