<svg width="40" height="40" viewBox="0 0 40 40" fill="none" xmlns="http://www.w3.org/2000/svg">
<path d="M3.33301 15.0002V10.8335C3.33301 6.6835 6.68301 3.3335 10.833 3.3335H14.9997" stroke="#FE353D" stroke-width="2" stroke-linecap="round" stroke-linejoin="round"/>
<path d="M25 3.3335H29.1667C33.3167 3.3335 36.6667 6.6835 36.6667 10.8335V15.0002" stroke="#FE353D" stroke-width="2" stroke-linecap="round" stroke-linejoin="round"/>
<path d="M36.667 26.6665V29.1665C36.667 33.3165 33.317 36.6665 29.167 36.6665H26.667" stroke="#FE353D" stroke-width="2" stroke-linecap="round" stroke-linejoin="round"/>
<path d="M14.9997 36.6667H10.833C6.68301 36.6667 3.33301 33.3167 3.33301 29.1667V25" stroke="#FE353D" stroke-width="2" stroke-linecap="round" stroke-linejoin="round"/>
<path d="M17.5003 11.6665V14.9998C17.5003 16.6665 16.667 17.4998 15.0003 17.4998H11.667C10.0003 17.4998 9.16699 16.6665 9.16699 14.9998V11.6665C9.16699 9.99984 10.0003 9.1665 11.667 9.1665H15.0003C16.667 9.1665 17.5003 9.99984 17.5003 11.6665Z" fill="#FFDFE0" stroke="#FE353D" stroke-width="2" stroke-linecap="round" stroke-linejoin="round"/>
<path d="M30.8333 11.6665V14.9998C30.8333 16.6665 30 17.4998 28.3333 17.4998H25C23.3333 17.4998 22.5 16.6665 22.5 14.9998V11.6665C22.5 9.99984 23.3333 9.1665 25 9.1665H28.3333C30 9.1665 30.8333 9.99984 30.8333 11.6665Z" fill="#FFDFE0" stroke="#FE353D" stroke-width="2" stroke-linecap="round" stroke-linejoin="round"/>
<path d="M17.5003 25V28.3333C17.5003 30 16.667 30.8333 15.0003 30.8333H11.667C10.0003 30.8333 9.16699 30 9.16699 28.3333V25C9.16699 23.3333 10.0003 22.5 11.667 22.5H15.0003C16.667 22.5 17.5003 23.3333 17.5003 25Z" fill="#FFDFE0" stroke="#FE353D" stroke-width="2" stroke-linecap="round" stroke-linejoin="round"/>
<path d="M30.8333 25V28.3333C30.8333 30 30 30.8333 28.3333 30.8333H25C23.3333 30.8333 22.5 30 22.5 28.3333V25C22.5 23.3333 23.3333 22.5 25 22.5H28.3333C30 22.5 30.8333 23.3333 30.8333 25Z" fill="#FFDFE0" stroke="#FE353D" stroke-width="2" stroke-linecap="round" stroke-linejoin="round"/>
</svg>
