<svg width="30" height="24" viewBox="0 0 30 24" fill="none" xmlns="http://www.w3.org/2000/svg">
<path opacity="0.4" d="M18.3496 4.99023C19.1562 4.99023 19.9311 5.30798 20.4951 5.87402C21.0631 6.44538 21.3783 7.21286 21.377 8.01172V9.67188C21.3703 9.86669 21.2114 10.025 21.0127 10.0303H8.31934C8.12204 10.0237 7.96298 9.86536 7.95898 9.67188V8.01172C7.94433 6.3579 9.29922 5.00742 10.9844 4.99023H18.3496ZM21.5918 0.000976562C24.521 0.00107957 26.9022 2.33565 26.9023 5.20801V7.68359C26.9021 8.23253 26.4489 8.67964 25.8877 8.67969C25.3278 8.67969 24.8733 8.23256 24.873 7.68359V5.20801C24.8729 3.43392 23.401 1.99034 21.5918 1.99023H19.4678C18.9079 1.99023 18.4533 1.5461 18.4531 0.99707C18.4531 0.446627 18.9078 0.000976562 19.4678 0.000976562H21.5918ZM9.90332 0C10.4633 0 10.9179 0.44574 10.918 0.996094C10.918 1.54523 10.4647 1.99121 9.90332 1.99121L7.73145 1.99219C5.92887 1.99491 4.46191 3.43516 4.46191 5.2041V7.68262C4.46191 8.23175 4.00629 8.67871 3.44629 8.67871C2.8863 8.6787 2.43164 8.23175 2.43164 7.68262V5.2041C2.43164 2.33813 4.80914 0.0035915 7.73047 0.000976562L9.90234 0H9.90332Z" fill="white"/>
<path d="M28.3187 12.0551H1.016C0.456 12.0551 0 12.5009 0 13.0513C0 13.6005 0.456 14.045 1.016 14.045H2.43067V18.7964C2.43067 21.6623 4.80933 23.9962 7.73067 23.9988L9.90267 24.0001C10.464 24.0001 10.9173 23.5542 10.9187 23.0038C10.9187 22.4546 10.464 22.0088 9.904 22.0088L7.73333 22.0075C5.92933 22.0049 4.46133 20.5654 4.46133 18.7964V14.045H7.95867V15.3669C7.94533 17.0208 9.29867 18.3727 10.984 18.3884H18.3493C20.036 18.3727 21.3893 17.0208 21.376 15.3669V14.045H24.8733V18.7911C24.8733 20.5667 23.4013 22.0088 21.592 22.0088H19.468C18.9067 22.0088 18.452 22.4546 18.452 23.0038C18.452 23.5542 18.9067 24.0001 19.468 24.0001H21.592C24.52 24.0001 26.9027 21.6649 26.9027 18.7911V14.045H28.3187C28.8787 14.045 29.3333 13.6005 29.3333 13.0513C29.3333 12.5009 28.8787 12.0551 28.3187 12.0551Z" fill="white"/>
</svg>
